<?xml version="1.0" encoding="utf-8"?>
<!-- Generator: Adobe Illustrator 16.0.3, SVG Export Plug-In . SVG Version: 6.00 Build 0)  -->
<!DOCTYPE svg PUBLIC "-//W3C//DTD SVG 1.1//EN" "http://www.w3.org/Graphics/SVG/1.1/DTD/svg11.dtd">
<svg version="1.1" id="Layer_1" xmlns="http://www.w3.org/2000/svg" xmlns:xlink="http://www.w3.org/1999/xlink" x="0px" y="0px"
	 width="131px" height="114px" viewBox="0 0 131 114" enable-background="new 0 0 131 114" xml:space="preserve">
<circle opacity="0.6" fill="#004B84" cx="32.101" cy="23.646" r="8.782"/>
<path opacity="0.6" fill="#004B84" d="M26.099,35.94h-5.123c0,0-6.002,0.732-6.147,7.174c-0.147,6.439,0,21.225,0,21.225
	s-0.438,6.293,7.758,6.879c0.732,8.344,2.194,28.545,2.194,28.545s-0.438,6.44,4.393,6.44h6.587c0,0,3.513-0.733,3.807-3.808
	c0.293-3.074,2.633-31.324,2.633-31.324s7.174,0.439,7.467-6.588c0.293-7.025,0-22.541,0-22.541s-1.61-5.123-6.732-6.002
	c-4.538,0-4.538,0-4.538,0l-6.116,10.979L26.099,35.94z"/>
<circle opacity="0.6" fill="#004B84" cx="97.311" cy="23.646" r="8.782"/>
<path opacity="0.6" fill="#004B84" d="M91.821,35.94c0,0-6.001-0.293-8.05,5.563s-9.368,25.469-9.368,25.469
	s-0.513,2.344,1.61,3.441c2.122,1.098,4.317,0.219,5.05-1.611c0.732-1.826,7.539-21.076,7.539-21.076L89.92,59.8l-6.835,18.225
	c0,0-1.144,3.586,2.809,3.586c3.953,0,3.953,0,3.953,0l2.27,21.811c0,0,0.072,2.928,4.829,2.854c4.757-0.071,2.27,0.002,2.27,0.002
	s2.854-0.732,3.146-2.855s2.487-21.811,2.487-21.811l4.759-0.072c0,0,2.634-0.585,1.901-2.637
	c-0.73-2.049-6.878-18.955-6.878-18.955l1.171-12.148l7.685,21.59c0,0,2.415,3,4.976,0.805c2.563-2.195,1.173-4.025,1.173-4.025
	l-9.588-26.641c0,0-2.343-3.516-7.026-3.588c-1.976,3.441-5.709,9.443-5.709,9.443L91.821,35.94z"/>
<path fill="#0D4C84" d="M68.307,100.903c0,2.926-2.372,5.3-5.299,5.3l0,0c-2.925,0-5.298-2.374-5.298-5.3V22.476
	c0-2.928,2.373-5.299,5.298-5.299l0,0c2.927,0,5.299,2.371,5.299,5.299V100.903z"/>
</svg>
